<svg width="26" height="26" viewBox="0 0 26 26" fill="none" xmlns="http://www.w3.org/2000/svg">
<path d="M13 26C13.5523 26 14 25.5523 14 25C14 24.4477 13.5523 24 13 24V25V26ZM13 2C13.5523 2 14 1.55228 14 1C14 0.447715 13.5523 0 13 0V1V2ZM10 12C9.44772 12 9 12.4477 9 13C9 13.5523 9.44772 14 10 14V13V12ZM25 13L25.7071 13.7071C26.0976 13.3166 26.0976 12.6834 25.7071 12.2929L25 13ZM21.2071 7.79289C20.8166 7.40237 20.1834 7.40237 19.7929 7.79289C19.4024 8.18342 19.4024 8.81658 19.7929 9.20711L20.5 8.5L21.2071 7.79289ZM19.7929 16.7929C19.4024 17.1834 19.4024 17.8166 19.7929 18.2071C20.1834 18.5976 20.8166 18.5976 21.2071 18.2071L20.5 17.5L19.7929 16.7929ZM13 25V24C6.92486 24 2 19.0752 2 13H1H0C0 20.1797 5.8203 26 13 26V25ZM1 13H2C2 6.92486 6.92486 2 13 2V1V0C5.8203 0 0 5.8203 0 13H1ZM10 13V14H25V13V12H10V13ZM25 13L25.7071 12.2929L21.2071 7.79289L20.5 8.5L19.7929 9.20711L24.2929 13.7071L25 13ZM25 13L24.2929 12.2929L19.7929 16.7929L20.5 17.5L21.2071 18.2071L25.7071 13.7071L25 13Z" fill="white"/>
</svg>
