<svg width="25" height="26" viewBox="0 0 25 26" fill="none" xmlns="http://www.w3.org/2000/svg">
<path d="M2.30733 11.367C2.87439 11.7233 3.23925 12.3303 3.23925 12.9999C3.23924 13.6696 2.87438 14.2766 2.30733 14.6328C1.92146 14.8752 1.67284 15.069 1.49596 15.2996C1.10847 15.8046 0.937456 16.4428 1.02054 17.0739C1.08285 17.5472 1.36241 18.0314 1.92154 18.9999C2.48068 19.9683 2.76024 20.4525 3.13898 20.7431C3.64396 21.1306 4.28219 21.3016 4.91327 21.2186C5.20131 21.1806 5.4934 21.0622 5.89622 20.8493C6.48839 20.5364 7.19656 20.5239 7.7766 20.8588C8.35659 21.1937 8.69979 21.8132 8.72481 22.4824C8.74185 22.9378 8.78536 23.25 8.89655 23.5185C9.14014 24.1065 9.60736 24.5738 10.1954 24.8174C10.6365 25 11.1956 25 12.3139 25C13.4321 25 13.9912 25 14.4323 24.8174C15.0203 24.5738 15.4876 24.1065 15.7312 23.5185C15.8423 23.25 15.8859 22.9378 15.9029 22.4825C15.9279 21.8132 16.2711 21.1937 16.8512 20.8588C17.4311 20.524 18.1393 20.5365 18.7313 20.8494C19.1343 21.0623 19.4264 21.1808 19.7144 21.2187C20.3455 21.3018 20.9837 21.1307 21.4887 20.7432C21.8674 20.4527 22.147 19.9684 22.7062 19C22.9551 18.5688 23.1487 18.2337 23.2922 17.9526M22.3203 14.633C21.7533 14.2767 21.3885 13.6697 21.3884 13.0001C21.3884 12.3304 21.7533 11.7233 22.3203 11.367C22.7062 11.1246 22.9547 10.9308 23.1316 10.7003C23.5191 10.1953 23.6901 9.5571 23.6071 8.92602C23.5448 8.45272 23.2652 7.9685 22.706 7.00006C22.1469 6.03161 21.8673 5.5474 21.4886 5.25678C20.9836 4.86929 20.3453 4.69828 19.7143 4.78136C19.4263 4.81929 19.1342 4.93768 18.7313 5.1506C18.1391 5.46357 17.431 5.47605 16.8511 5.14115C16.2711 4.80628 15.9279 4.18684 15.9029 3.51764C15.8859 3.06222 15.8423 2.75002 15.7312 2.48156C15.4876 1.8935 15.0203 1.42628 14.4323 1.18269C13.9912 1 13.4321 1 12.3139 1C11.1956 1 10.6365 1 10.1954 1.18269C9.60736 1.42628 9.14014 1.8935 8.89655 2.48156C8.78536 2.75 8.74185 3.06218 8.72481 3.51753C8.69978 4.18679 8.35656 4.80629 7.77656 5.14115C7.19655 5.47602 6.48844 5.46351 5.89632 5.15056C5.49346 4.93763 5.20134 4.81923 4.91328 4.7813C4.2822 4.69822 3.64397 4.86923 3.13899 5.25672C2.76026 5.54734 2.48069 6.03156 1.92155 7C1.67264 7.43115 1.47912 7.76631 1.33552 8.04728M15.9139 13C15.9139 14.9882 14.3021 16.6 12.3139 16.6C10.3256 16.6 8.71386 14.9882 8.71386 13C8.71386 11.0118 10.3256 9.4 12.3139 9.4C14.3021 9.4 15.9139 11.0118 15.9139 13Z" stroke="white" stroke-width="2" stroke-linecap="round"/>
</svg>
