<svg width="21" height="22" viewBox="0 0 21 22" fill="none" xmlns="http://www.w3.org/2000/svg">
<path fill-rule="evenodd" clip-rule="evenodd" d="M3.81818 0C2.80554 0 1.83437 0.421427 1.11832 1.17157C0.402272 1.92172 0 2.93913 0 4V18C0 19.0609 0.402272 20.0783 1.11832 20.8284C1.83437 21.5786 2.80554 22 3.81818 22H17.1818C18.1945 22 19.1656 21.5786 19.8817 20.8284C20.5977 20.0783 21 19.0609 21 18V4C21 2.93913 20.5977 1.92172 19.8817 1.17157C19.1656 0.421427 18.1945 0 17.1818 0H3.81818ZM10.0227 5.773C10.0227 3.591 11.0641 2.5 13.147 2.5C13.147 4.682 12.1055 5.773 10.0227 5.773ZM7.47886 6.5C8.14514 6.5 8.65582 6.746 9.10159 6.96C9.44809 7.126 9.7545 7.274 10.0657 7.274C10.3769 7.274 10.7539 7.126 11.1796 6.96C11.7275 6.746 12.3556 6.5 13.0219 6.5C13.861 6.5 14.9377 6.999 15.7118 7.996C15.2823 8.292 14.4232 9.176 14.4232 11.146C14.4232 12.671 15.6488 13.872 16.2616 14.105C15.5954 16.417 14.2953 18.5 13.0219 18.5C12.4683 18.5 12.0053 18.306 11.5433 18.113C11.0823 17.919 10.6203 17.726 10.0657 17.726C9.51204 17.726 9.14168 17.919 8.77227 18.113C8.40286 18.307 8.03345 18.5 7.47886 18.5C5.65759 18.5 3.78477 14.242 3.78477 11.145C3.78477 8.048 6.00123 6.5 7.47886 6.5Z" fill="black"/>
</svg>
