<svg width="21" height="22" viewBox="0 0 21 22" fill="none" xmlns="http://www.w3.org/2000/svg">
<path d="M19.8413 0H1.15868C0.518759 0 0 0.543462 0 1.21386V20.7861C0 21.4565 0.518759 22 1.15868 22H19.8413C20.4812 22 21 21.4565 21 20.7861V1.21386C21 0.543462 20.4812 0 19.8413 0Z" fill="#3D5A98"/>
<path d="M14.488 21.9981V13.4788H17.217L17.6251 10.1589H14.488V8.03971C14.488 7.07867 14.7435 6.42248 16.0583 6.42248H17.7369V3.44825C16.924 3.35966 16.1072 3.31746 15.29 3.32184C12.8733 3.32184 11.2089 4.86472 11.2089 7.71069V10.1589H8.47985V13.4788H11.2089V21.9981H14.488Z" fill="white"/>
</svg>
