<svg width="21" height="22" viewBox="0 0 21 22" fill="none" xmlns="http://www.w3.org/2000/svg">
<path d="M7.21092 0.603035C5.04456 1.37456 3.1763 2.83894 1.88055 4.78109C0.584794 6.72323 -0.0701467 9.04076 0.0119243 11.3933C0.0939952 13.7458 0.908752 16.0093 2.33652 17.8513C3.76429 19.6933 5.72981 21.0167 7.94438 21.6272C9.73978 22.1028 11.6208 22.1237 13.4258 21.688C15.061 21.311 16.5727 20.5044 17.813 19.3474C19.1039 18.1064 20.0409 16.5276 20.5233 14.7809C21.0476 12.8813 21.1409 10.8837 20.796 8.94139H10.7139V13.2349H16.5528C16.4361 13.9197 16.186 14.5733 15.8175 15.1565C15.4491 15.7398 14.9697 16.2407 14.4083 16.6294C13.6953 17.1136 12.8916 17.4393 12.0487 17.5858C11.2033 17.7472 10.3363 17.7472 9.4909 17.5858C8.63411 17.404 7.8236 17.0409 7.11098 16.5198C5.96615 15.6879 5.10655 14.506 4.65483 13.1427C4.19547 11.754 4.19547 10.2484 4.65483 8.85966C4.97637 7.88621 5.50793 6.99989 6.20982 6.26686C7.01306 5.41258 8.02997 4.80194 9.149 4.50194C10.268 4.20193 11.4459 4.22414 12.5535 4.56615C13.4187 4.8388 14.2098 5.31518 14.8639 5.95732C15.5223 5.28492 16.1795 4.61078 16.8356 3.9349C17.1744 3.57146 17.5437 3.2254 17.8774 2.85326C16.8789 1.89939 15.707 1.15717 14.4286 0.669115C12.1007 -0.198648 9.55354 -0.221968 7.21092 0.603035Z" fill="white"/>
<path d="M7.21092 0.603035C9.55335 -0.222529 12.1005 -0.199822 14.4286 0.667376C15.7072 1.15875 16.8786 1.90455 17.8757 2.86196C17.5369 3.2341 17.1795 3.58189 16.834 3.94359C16.1767 4.61716 15.5201 5.2884 14.8639 5.95732C14.2098 5.31518 13.4187 4.8388 12.5535 4.56615C11.4463 4.22294 10.2684 4.19944 9.14911 4.49823C8.02978 4.79701 7.01224 5.40652 6.20813 6.2599C5.50624 6.99294 4.97468 7.87926 4.65313 8.85271L1.14168 6.06166C2.39857 3.50287 4.57479 1.5456 7.21092 0.603035Z" fill="#E33629"/>
<path d="M0.210039 8.82662C0.398775 7.86635 0.712116 6.93641 1.14168 6.06166L4.65313 8.85966C4.19377 10.2484 4.19377 11.754 4.65313 13.1427C3.48321 14.0702 2.31273 15.0023 1.14168 15.939C0.0663124 13.7415 -0.261657 11.2377 0.210039 8.82662Z" fill="#F8BD00"/>
<path d="M10.7139 8.93965H20.796C21.1409 10.882 21.0476 12.8796 20.5233 14.7791C20.0409 16.5259 19.1039 18.1046 17.813 19.3456C16.6798 18.4379 15.5415 17.5371 14.4083 16.6294C14.9701 16.2403 15.4496 15.7388 15.8181 15.155C16.1866 14.5711 16.4365 13.9168 16.5528 13.2314H10.7139C10.7122 11.802 10.7139 10.3708 10.7139 8.93965Z" fill="#587DBD"/>
<path d="M1.13999 15.939C2.31104 15.0116 3.48152 14.0795 4.65144 13.1427C5.10406 14.5064 5.9649 15.6884 7.11098 16.5198C7.82582 17.0385 8.63808 17.3986 9.49599 17.5771C10.3413 17.7385 11.2084 17.7385 12.0538 17.5771C12.8966 17.4306 13.7004 17.1049 14.4134 16.6207C15.5466 17.5284 16.6849 18.4292 17.8181 19.337C16.578 20.4946 15.0662 21.3018 13.4309 21.6793C11.6259 22.115 9.74486 22.0941 7.94946 21.6185C6.52947 21.2292 5.2031 20.5431 4.05349 19.603C2.8367 18.6113 1.84288 17.3614 1.13999 15.939Z" fill="#319F43"/>
</svg>
