<svg width="21" height="22" viewBox="0 0 21 22" fill="none" xmlns="http://www.w3.org/2000/svg">
<path fill-rule="evenodd" clip-rule="evenodd" d="M3.81818 0C2.80554 0 1.83437 0.421427 1.11832 1.17157C0.402272 1.92172 0 2.93913 0 4V18C0 19.0609 0.402272 20.0783 1.11832 20.8284C1.83437 21.5786 2.80554 22 3.81818 22H17.1818C18.1945 22 19.1656 21.5786 19.8817 20.8284C20.5977 20.0783 21 19.0609 21 18V4C21 2.93913 20.5977 1.92172 19.8817 1.17157C19.1656 0.421427 18.1945 0 17.1818 0H3.81818ZM3.49936 3.5C3.39487 3.54068 3.30089 3.60637 3.22491 3.69182C3.14893 3.77727 3.09304 3.88013 3.06171 3.99221C3.03037 4.10428 3.02446 4.22248 3.04442 4.33737C3.06439 4.45227 3.1097 4.56069 3.17673 4.654L8.53555 12.104L2.88941 18.449L2.84741 18.5H4.80136L9.41182 13.321L12.9551 18.249C13.0373 18.3631 13.1489 18.4502 13.2768 18.5H17.4978C17.6021 18.4591 17.6959 18.3933 17.7717 18.3077C17.8474 18.2222 17.9031 18.1193 17.9343 18.0072C17.9654 17.8952 17.9712 17.7771 17.9511 17.6623C17.931 17.5475 17.8856 17.4392 17.8185 17.346L12.4597 9.896L18.1526 3.5H16.1958L11.5853 8.68L8.04014 3.752C7.95806 3.63756 7.84644 3.55012 7.71845 3.5H3.49936ZM13.8848 17.048L5.18414 4.952H7.11136L15.8111 17.047L13.8848 17.048Z" fill="black"/>
</svg>
